<svg id="ejKIritceS11" xmlns="http://www.w3.org/2000/svg" xmlns:xlink="http://www.w3.org/1999/xlink" viewBox="0 0 478 512.01" shape-rendering="geometricPrecision" text-rendering="geometricPrecision"><path d="M69.7,55.96h32.12v265.57h-32.12v-265.57ZM242.73,232.64c9.33.14,18.47,1.29,27.27,3.36v-180.04h22.95v187.8c9.78,4.39,18.95,9.99,27.28,16.6v-204.4h32.11v242.13c.49.87.96,1.74,1.43,2.62c7.6,14.39,12.58,30.51,14.2,47.77c1.19,12.63.5,25.03-1.84,36.85-2.088647,10.55147-5.512873,20.793904-10.19,30.48l54.37,49.11c2.5,2.26,2.69,6.13.42,8.63l-33.04,36.46c-2.274803,2.491429-6.134272,2.679042-8.64.42L317.04,463c-8.625329,6.438411-18.034063,11.754346-28,15.82-11.32,4.62-23.52,7.68-36.34,8.89-17.24,1.62-34-.27-49.57-5.06-16.18-4.98-31.09-13.12-43.92-23.75-12.953087-10.708547-23.667454-23.866185-31.53-38.72-7.61-14.38-12.59-30.51-14.21-47.76-1.62-17.23.26-34,5.06-49.57c2.65-8.63,6.21-16.91,10.56-24.7v-242.19h9.76v227.28c1.11-1.46,2.25-2.9,3.42-4.31c6.94-8.39,14.96-15.9,23.85-22.3v-200.67h32.13v183.9c8.66-3.04,17.79-5.19,27.27-6.32v-177.58h17.21v176.68Zm63.05,49.23c-20.9-17.31-47.61-25.53-74.62-22.99-40.99,3.85-75.76,32.04-87.97,71.57-3.931086,12.79348-5.300547,26.236627-4.03,39.56c2.53,27,15.62,51.72,36.51,69.01c10.24,8.48,22.14,14.98,35.04,18.95c12.44,3.83,25.83,5.33,39.58,4.04c13.73-1.29,26.61-5.27,38.11-11.36c11.851515-6.273,22.351362-14.818992,30.9-25.15c8.48-10.24,14.98-22.14,18.95-35.04c3.83-12.44,5.33-25.83,4.04-39.58-1.23829-13.323344-5.095404-26.271015-11.35-38.1-6.277021-11.85456-14.826207-22.357555-25.16-30.91ZM9.26,0h85.64v18.52h-76.39v48.38L0,66.9L0,9.26C0,4.15,4.14,0,9.26,0Zm9.25,310.59v48.38h76.39v18.52h-85.64c-5.12,0-9.26-4.15-9.26-9.26v-57.64h18.51ZM383.1,0h85.64C473.85,0,478,4.15,478,9.26v57.64h-18.51v-48.38h-76.39v-18.52ZM478,310.59v57.64c0,5.11-4.15,9.26-9.26,9.26h-85.64v-18.52h76.39v-48.38h18.51ZM379.62,55.96h28.68v265.57h-28.68v-265.57Z" clip-rule="evenodd" fill="#1ca80b" fill-rule="evenodd"/></svg>
